<?xml version="1.0" encoding="UTF-8"?>
<svg width="1200pt" height="1200pt" version="1.1" viewBox="0 0 1200 1200" xmlns="http://www.w3.org/2000/svg">
 <path d="m56.477 222.86c-8.3359 0-15.047 6.7109-15.047 15.047v647.05c0 8.3398 6.7109 15.051 15.047 15.051h1098.5c8.3359 0 15.047-6.7109 15.047-15.047v-647.05c0-8.3359-6.7109-15.047-15.047-15.047zm384.66 94.988c134.61-0.066406 281.2 0.84766 427.92 0.46875 117.44 0 213.02 95.582 213.02 213.02s-95.582 213.02-213.02 213.02-213.02-95.582-213.02-213.02c0-67.07 31.75-126.4 80.41-165.52h-290.61c48.66 39.121 80.41 98.453 80.41 165.52 0 117.44-95.582 213.02-213.02 213.02s-213.02-95.582-213.02-213.02c0-116.64 94.324-211.73 210.67-213.02 41.734-0.32812 85.387-0.44922 130.26-0.46875zm-127.91 50.316c-90.328 0-163.17 72.844-163.17 163.17s72.844 163.17 163.17 163.17c90.328 0 163.17-72.844 163.17-163.17s-72.844-163.17-163.17-163.17zm555.82 0c-90.328 0-163.17 72.844-163.17 163.17s72.844 163.17 163.17 163.17 163.17-72.844 163.17-163.17-72.844-163.17-163.17-163.17z" fill="#ff002f"/>
 <path d="m145.11 809.71h921.21c3.2422 0 5.8711 3.2422 5.8711 5.8711v33.398c0 3.2422-2.6289 5.8711-5.8711 5.8711h-921.21c-3.2422 0-5.8711-3.2422-5.8711-5.8711v-33.398c0-3.2422 2.6289-5.8711 5.8711-5.8711z" fill="#ff002f"/>
</svg>
